<?xml version="1.0" encoding="UTF-8"?>
<svg xmlns="http://www.w3.org/2000/svg" xmlns:xlink="http://www.w3.org/1999/xlink" width="640pt" height="320pt" viewBox="0 0 640 320" version="1.1">
<g id="surface1">
<path style=" stroke:none;fill-rule:nonzero;fill:rgb(95%,97%,98%);fill-opacity:1;" d="M 0 0 L 32 0 L 32 32 L 0 32 Z "/>
<path style=" stroke:none;fill-rule:nonzero;fill:rgb(95%,97%,98%);fill-opacity:1;" d="M 32 0 L 64 0 L 64 32 L 32 32 Z "/>
<path style=" stroke:none;fill-rule:nonzero;fill:rgb(95%,97%,98%);fill-opacity:1;" d="M 64 0 L 96 0 L 96 32 L 64 32 Z "/>
<path style=" stroke:none;fill-rule:nonzero;fill:rgb(95%,97%,98%);fill-opacity:1;" d="M 96 0 L 128 0 L 128 32 L 96 32 Z "/>
<path style=" stroke:none;fill-rule:nonzero;fill:rgb(95%,97%,98%);fill-opacity:1;" d="M 128 0 L 160 0 L 160 32 L 128 32 Z "/>
<path style=" stroke:none;fill-rule:nonzero;fill:rgb(95%,97%,98%);fill-opacity:1;" d="M 160 0 L 192 0 L 192 32 L 160 32 Z "/>
<path style=" stroke:none;fill-rule:nonzero;fill:rgb(95%,97%,98%);fill-opacity:1;" d="M 192 0 L 224 0 L 224 32 L 192 32 Z "/>
<path style=" stroke:none;fill-rule:nonzero;fill:rgb(95%,97%,98%);fill-opacity:1;" d="M 224 0 L 256 0 L 256 32 L 224 32 Z "/>
<path style=" stroke:none;fill-rule:nonzero;fill:rgb(95%,97%,98%);fill-opacity:1;" d="M 256 0 L 288 0 L 288 32 L 256 32 Z "/>
<path style=" stroke:none;fill-rule:nonzero;fill:rgb(95%,97%,98%);fill-opacity:1;" d="M 288 0 L 320 0 L 320 32 L 288 32 Z "/>
<path style=" stroke:none;fill-rule:nonzero;fill:rgb(95%,97%,98%);fill-opacity:1;" d="M 320 0 L 352 0 L 352 32 L 320 32 Z "/>
<path style=" stroke:none;fill-rule:nonzero;fill:rgb(95%,97%,98%);fill-opacity:1;" d="M 352 0 L 384 0 L 384 32 L 352 32 Z "/>
<path style=" stroke:none;fill-rule:nonzero;fill:rgb(95%,97%,98%);fill-opacity:1;" d="M 384 0 L 416 0 L 416 32 L 384 32 Z "/>
<path style=" stroke:none;fill-rule:nonzero;fill:rgb(95%,97%,98%);fill-opacity:1;" d="M 416 0 L 448 0 L 448 32 L 416 32 Z "/>
<path style=" stroke:none;fill-rule:nonzero;fill:rgb(95%,97%,98%);fill-opacity:1;" d="M 448 0 L 480 0 L 480 32 L 448 32 Z "/>
<path style=" stroke:none;fill-rule:nonzero;fill:rgb(95%,97%,98%);fill-opacity:1;" d="M 480 0 L 512 0 L 512 32 L 480 32 Z "/>
<path style=" stroke:none;fill-rule:nonzero;fill:rgb(95%,97%,98%);fill-opacity:1;" d="M 512 0 L 544 0 L 544 32 L 512 32 Z "/>
<path style=" stroke:none;fill-rule:nonzero;fill:rgb(95%,97%,98%);fill-opacity:1;" d="M 544 0 L 576 0 L 576 32 L 544 32 Z "/>
<path style=" stroke:none;fill-rule:nonzero;fill:rgb(95%,97%,98%);fill-opacity:1;" d="M 576 0 L 608 0 L 608 32 L 576 32 Z "/>
<path style=" stroke:none;fill-rule:nonzero;fill:rgb(95%,97%,98%);fill-opacity:1;" d="M 608 0 L 640 0 L 640 32 L 608 32 Z "/>
<path style=" stroke:none;fill-rule:nonzero;fill:rgb(95%,97%,98%);fill-opacity:1;" d="M 0 32 L 32 32 L 32 64 L 0 64 Z "/>
<path style=" stroke:none;fill-rule:nonzero;fill:rgb(95%,97%,98%);fill-opacity:1;" d="M 32 32 L 64 32 L 64 64 L 32 64 Z "/>
<path style=" stroke:none;fill-rule:nonzero;fill:rgb(95%,97%,98%);fill-opacity:1;" d="M 64 32 L 96 32 L 96 64 L 64 64 Z "/>
<path style=" stroke:none;fill-rule:nonzero;fill:rgb(95%,97%,98%);fill-opacity:1;" d="M 96 32 L 128 32 L 128 64 L 96 64 Z "/>
<path style=" stroke:none;fill-rule:nonzero;fill:rgb(95%,97%,98%);fill-opacity:1;" d="M 128 32 L 160 32 L 160 64 L 128 64 Z "/>
<path style=" stroke:none;fill-rule:nonzero;fill:rgb(34%,34%,42%);fill-opacity:1;" d="M 155.839844 59.839844 L 160 59.839844 L 160 64 L 155.839844 64 Z "/>
<path style=" stroke:none;fill-rule:nonzero;fill:rgb(95%,97%,98%);fill-opacity:1;" d="M 160 32 L 192 32 L 192 64 L 160 64 Z "/>
<path style=" stroke:none;fill-rule:nonzero;fill:rgb(34%,34%,42%);fill-opacity:1;" d="M 160 59.839844 L 192 59.839844 L 192 64 L 160 64 Z "/>
<path style=" stroke:none;fill-rule:nonzero;fill:rgb(34%,34%,42%);fill-opacity:1;" d="M 187.839844 59.839844 L 192 59.839844 L 192 64 L 187.839844 64 Z "/>
<path style=" stroke:none;fill-rule:nonzero;fill:rgb(95%,97%,98%);fill-opacity:1;" d="M 192 32 L 224 32 L 224 64 L 192 64 Z "/>
<path style=" stroke:none;fill-rule:nonzero;fill:rgb(34%,34%,42%);fill-opacity:1;" d="M 192 59.839844 L 196.160156 59.839844 L 196.160156 64 L 192 64 Z "/>
<path style=" stroke:none;fill-rule:nonzero;fill:rgb(34%,34%,42%);fill-opacity:1;" d="M 192 59.839844 L 224 59.839844 L 224 64 L 192 64 Z "/>
<path style=" stroke:none;fill-rule:nonzero;fill:rgb(34%,34%,42%);fill-opacity:1;" d="M 219.839844 59.839844 L 224 59.839844 L 224 64 L 219.839844 64 Z "/>
<path style=" stroke:none;fill-rule:nonzero;fill:rgb(95%,97%,98%);fill-opacity:1;" d="M 224 32 L 256 32 L 256 64 L 224 64 Z "/>
<path style=" stroke:none;fill-rule:nonzero;fill:rgb(34%,34%,42%);fill-opacity:1;" d="M 224 59.839844 L 228.160156 59.839844 L 228.160156 64 L 224 64 Z "/>
<path style=" stroke:none;fill-rule:nonzero;fill:rgb(34%,34%,42%);fill-opacity:1;" d="M 224 59.839844 L 256 59.839844 L 256 64 L 224 64 Z "/>
<path style=" stroke:none;fill-rule:nonzero;fill:rgb(34%,34%,42%);fill-opacity:1;" d="M 251.839844 59.839844 L 256 59.839844 L 256 64 L 251.839844 64 Z "/>
<path style=" stroke:none;fill-rule:nonzero;fill:rgb(95%,97%,98%);fill-opacity:1;" d="M 256 32 L 288 32 L 288 64 L 256 64 Z "/>
<path style=" stroke:none;fill-rule:nonzero;fill:rgb(34%,34%,42%);fill-opacity:1;" d="M 256 59.839844 L 260.160156 59.839844 L 260.160156 64 L 256 64 Z "/>
<path style=" stroke:none;fill-rule:nonzero;fill:rgb(34%,34%,42%);fill-opacity:1;" d="M 256 59.839844 L 288 59.839844 L 288 64 L 256 64 Z "/>
<path style=" stroke:none;fill-rule:nonzero;fill:rgb(34%,34%,42%);fill-opacity:1;" d="M 283.839844 59.839844 L 288 59.839844 L 288 64 L 283.839844 64 Z "/>
<path style=" stroke:none;fill-rule:nonzero;fill:rgb(95%,97%,98%);fill-opacity:1;" d="M 288 32 L 320 32 L 320 64 L 288 64 Z "/>
<path style=" stroke:none;fill-rule:nonzero;fill:rgb(34%,34%,42%);fill-opacity:1;" d="M 288 59.839844 L 292.160156 59.839844 L 292.160156 64 L 288 64 Z "/>
<path style=" stroke:none;fill-rule:nonzero;fill:rgb(34%,34%,42%);fill-opacity:1;" d="M 288 59.839844 L 320 59.839844 L 320 64 L 288 64 Z "/>
<path style=" stroke:none;fill-rule:nonzero;fill:rgb(34%,34%,42%);fill-opacity:1;" d="M 315.839844 59.839844 L 320 59.839844 L 320 64 L 315.839844 64 Z "/>
<path style=" stroke:none;fill-rule:nonzero;fill:rgb(95%,97%,98%);fill-opacity:1;" d="M 320 32 L 352 32 L 352 64 L 320 64 Z "/>
<path style=" stroke:none;fill-rule:nonzero;fill:rgb(34%,34%,42%);fill-opacity:1;" d="M 320 59.839844 L 324.160156 59.839844 L 324.160156 64 L 320 64 Z "/>
<path style=" stroke:none;fill-rule:nonzero;fill:rgb(34%,34%,42%);fill-opacity:1;" d="M 320 59.839844 L 352 59.839844 L 352 64 L 320 64 Z "/>
<path style=" stroke:none;fill-rule:nonzero;fill:rgb(34%,34%,42%);fill-opacity:1;" d="M 347.839844 59.839844 L 352 59.839844 L 352 64 L 347.839844 64 Z "/>
<path style=" stroke:none;fill-rule:nonzero;fill:rgb(95%,97%,98%);fill-opacity:1;" d="M 352 32 L 384 32 L 384 64 L 352 64 Z "/>
<path style=" stroke:none;fill-rule:nonzero;fill:rgb(34%,34%,42%);fill-opacity:1;" d="M 352 59.839844 L 356.160156 59.839844 L 356.160156 64 L 352 64 Z "/>
<path style=" stroke:none;fill-rule:nonzero;fill:rgb(34%,34%,42%);fill-opacity:1;" d="M 352 59.839844 L 384 59.839844 L 384 64 L 352 64 Z "/>
<path style=" stroke:none;fill-rule:nonzero;fill:rgb(34%,34%,42%);fill-opacity:1;" d="M 379.839844 59.839844 L 384 59.839844 L 384 64 L 379.839844 64 Z "/>
<path style=" stroke:none;fill-rule:nonzero;fill:rgb(95%,97%,98%);fill-opacity:1;" d="M 384 32 L 416 32 L 416 64 L 384 64 Z "/>
<path style=" stroke:none;fill-rule:nonzero;fill:rgb(34%,34%,42%);fill-opacity:1;" d="M 384 59.839844 L 388.160156 59.839844 L 388.160156 64 L 384 64 Z "/>
<path style=" stroke:none;fill-rule:nonzero;fill:rgb(34%,34%,42%);fill-opacity:1;" d="M 384 59.839844 L 416 59.839844 L 416 64 L 384 64 Z "/>
<path style=" stroke:none;fill-rule:nonzero;fill:rgb(34%,34%,42%);fill-opacity:1;" d="M 411.839844 59.839844 L 416 59.839844 L 416 64 L 411.839844 64 Z "/>
<path style=" stroke:none;fill-rule:nonzero;fill:rgb(95%,97%,98%);fill-opacity:1;" d="M 416 32 L 448 32 L 448 64 L 416 64 Z "/>
<path style=" stroke:none;fill-rule:nonzero;fill:rgb(34%,34%,42%);fill-opacity:1;" d="M 416 59.839844 L 420.160156 59.839844 L 420.160156 64 L 416 64 Z "/>
<path style=" stroke:none;fill-rule:nonzero;fill:rgb(34%,34%,42%);fill-opacity:1;" d="M 416 59.839844 L 448 59.839844 L 448 64 L 416 64 Z "/>
<path style=" stroke:none;fill-rule:nonzero;fill:rgb(34%,34%,42%);fill-opacity:1;" d="M 443.839844 59.839844 L 448 59.839844 L 448 64 L 443.839844 64 Z "/>
<path style=" stroke:none;fill-rule:nonzero;fill:rgb(95%,97%,98%);fill-opacity:1;" d="M 448 32 L 480 32 L 480 64 L 448 64 Z "/>
<path style=" stroke:none;fill-rule:nonzero;fill:rgb(34%,34%,42%);fill-opacity:1;" d="M 448 59.839844 L 452.160156 59.839844 L 452.160156 64 L 448 64 Z "/>
<path style=" stroke:none;fill-rule:nonzero;fill:rgb(34%,34%,42%);fill-opacity:1;" d="M 448 59.839844 L 480 59.839844 L 480 64 L 448 64 Z "/>
<path style=" stroke:none;fill-rule:nonzero;fill:rgb(34%,34%,42%);fill-opacity:1;" d="M 475.839844 59.839844 L 480 59.839844 L 480 64 L 475.839844 64 Z "/>
<path style=" stroke:none;fill-rule:nonzero;fill:rgb(95%,97%,98%);fill-opacity:1;" d="M 480 32 L 512 32 L 512 64 L 480 64 Z "/>
<path style=" stroke:none;fill-rule:nonzero;fill:rgb(34%,34%,42%);fill-opacity:1;" d="M 480 59.839844 L 484.160156 59.839844 L 484.160156 64 L 480 64 Z "/>
<path style=" stroke:none;fill-rule:nonzero;fill:rgb(34%,34%,42%);fill-opacity:1;" d="M 480 59.839844 L 512 59.839844 L 512 64 L 480 64 Z "/>
<path style=" stroke:none;fill-rule:nonzero;fill:rgb(34%,34%,42%);fill-opacity:1;" d="M 507.839844 59.839844 L 512 59.839844 L 512 64 L 507.839844 64 Z "/>
<path style=" stroke:none;fill-rule:nonzero;fill:rgb(95%,97%,98%);fill-opacity:1;" d="M 512 32 L 544 32 L 544 64 L 512 64 Z "/>
<path style=" stroke:none;fill-rule:nonzero;fill:rgb(34%,34%,42%);fill-opacity:1;" d="M 512 59.839844 L 516.160156 59.839844 L 516.160156 64 L 512 64 Z "/>
<path style=" stroke:none;fill-rule:nonzero;fill:rgb(34%,34%,42%);fill-opacity:1;" d="M 512 59.839844 L 544 59.839844 L 544 64 L 512 64 Z "/>
<path style=" stroke:none;fill-rule:nonzero;fill:rgb(34%,34%,42%);fill-opacity:1;" d="M 539.839844 59.839844 L 544 59.839844 L 544 64 L 539.839844 64 Z "/>
<path style=" stroke:none;fill-rule:nonzero;fill:rgb(95%,97%,98%);fill-opacity:1;" d="M 544 32 L 576 32 L 576 64 L 544 64 Z "/>
<path style=" stroke:none;fill-rule:nonzero;fill:rgb(34%,34%,42%);fill-opacity:1;" d="M 544 59.839844 L 548.160156 59.839844 L 548.160156 64 L 544 64 Z "/>
<path style=" stroke:none;fill-rule:nonzero;fill:rgb(34%,34%,42%);fill-opacity:1;" d="M 544 59.839844 L 576 59.839844 L 576 64 L 544 64 Z "/>
<path style=" stroke:none;fill-rule:nonzero;fill:rgb(95%,97%,98%);fill-opacity:1;" d="M 576 32 L 608 32 L 608 64 L 576 64 Z "/>
<path style=" stroke:none;fill-rule:nonzero;fill:rgb(34%,34%,42%);fill-opacity:1;" d="M 576 59.839844 L 580.160156 59.839844 L 580.160156 64 L 576 64 Z "/>
<path style=" stroke:none;fill-rule:nonzero;fill:rgb(95%,97%,98%);fill-opacity:1;" d="M 608 32 L 640 32 L 640 64 L 608 64 Z "/>
<path style=" stroke:none;fill-rule:nonzero;fill:rgb(95%,97%,98%);fill-opacity:1;" d="M 0 64 L 32 64 L 32 96 L 0 96 Z "/>
<path style=" stroke:none;fill-rule:nonzero;fill:rgb(95%,97%,98%);fill-opacity:1;" d="M 32 64 L 64 64 L 64 96 L 32 96 Z "/>
<path style=" stroke:none;fill-rule:nonzero;fill:rgb(95%,97%,98%);fill-opacity:1;" d="M 64 64 L 96 64 L 96 96 L 64 96 Z "/>
<path style=" stroke:none;fill-rule:nonzero;fill:rgb(95%,97%,98%);fill-opacity:1;" d="M 96 64 L 128 64 L 128 96 L 96 96 Z "/>
<path style=" stroke:none;fill-rule:nonzero;fill:rgb(95%,97%,98%);fill-opacity:1;" d="M 128 64 L 160 64 L 160 96 L 128 96 Z "/>
<path style=" stroke:none;fill-rule:nonzero;fill:rgb(34%,34%,42%);fill-opacity:1;" d="M 155.839844 91.839844 L 160 91.839844 L 160 96 L 155.839844 96 Z "/>
<path style=" stroke:none;fill-rule:nonzero;fill:rgb(34%,34%,42%);fill-opacity:1;" d="M 155.839844 64 L 160 64 L 160 96 L 155.839844 96 Z "/>
<path style=" stroke:none;fill-rule:nonzero;fill:rgb(100%,100%,100%);fill-opacity:1;" d="M 160 64 L 192 64 L 192 96 L 160 96 Z "/>
<path style=" stroke:none;fill-rule:nonzero;fill:rgb(89%,89%,89%);fill-opacity:1;" d="M 192 64 L 224 64 L 224 96 L 192 96 Z "/>
<path style=" stroke:none;fill-rule:nonzero;fill:rgb(100%,100%,100%);fill-opacity:1;" d="M 224 64 L 256 64 L 256 96 L 224 96 Z "/>
<path style=" stroke:none;fill-rule:nonzero;fill:rgb(89%,89%,89%);fill-opacity:1;" d="M 256 64 L 288 64 L 288 96 L 256 96 Z "/>
<path style=" stroke:none;fill-rule:nonzero;fill:rgb(100%,100%,100%);fill-opacity:1;" d="M 288 64 L 320 64 L 320 96 L 288 96 Z "/>
<path style=" stroke:none;fill-rule:nonzero;fill:rgb(89%,89%,89%);fill-opacity:1;" d="M 320 64 L 352 64 L 352 96 L 320 96 Z "/>
<path style=" stroke:none;fill-rule:nonzero;fill:rgb(100%,100%,100%);fill-opacity:1;" d="M 352 64 L 384 64 L 384 96 L 352 96 Z "/>
<path style=" stroke:none;fill-rule:nonzero;fill:rgb(89%,89%,89%);fill-opacity:1;" d="M 384 64 L 416 64 L 416 96 L 384 96 Z "/>
<path style=" stroke:none;fill-rule:nonzero;fill:rgb(100%,100%,100%);fill-opacity:1;" d="M 416 64 L 448 64 L 448 96 L 416 96 Z "/>
<path style=" stroke:none;fill-rule:nonzero;fill:rgb(89%,89%,89%);fill-opacity:1;" d="M 448 64 L 480 64 L 480 96 L 448 96 Z "/>
<path style=" stroke:none;fill-rule:nonzero;fill:rgb(100%,100%,100%);fill-opacity:1;" d="M 480 64 L 512 64 L 512 96 L 480 96 Z "/>
<path style=" stroke:none;fill-rule:nonzero;fill:rgb(82%,67%,97%);fill-opacity:1;" d="M 512 64 L 544 64 L 544 96 L 512 96 Z "/>
<path style=" stroke:none;fill-rule:nonzero;fill:rgb(82%,67%,97%);fill-opacity:1;" d="M 544 64 L 576 64 L 576 96 L 544 96 Z "/>
<path style=" stroke:none;fill-rule:nonzero;fill:rgb(95%,97%,98%);fill-opacity:1;" d="M 576 64 L 608 64 L 608 96 L 576 96 Z "/>
<path style=" stroke:none;fill-rule:nonzero;fill:rgb(34%,34%,42%);fill-opacity:1;" d="M 576 91.839844 L 580.160156 91.839844 L 580.160156 96 L 576 96 Z "/>
<path style=" stroke:none;fill-rule:nonzero;fill:rgb(34%,34%,42%);fill-opacity:1;" d="M 576 64 L 580.160156 64 L 580.160156 96 L 576 96 Z "/>
<path style=" stroke:none;fill-rule:nonzero;fill:rgb(95%,97%,98%);fill-opacity:1;" d="M 608 64 L 640 64 L 640 96 L 608 96 Z "/>
<path style=" stroke:none;fill-rule:nonzero;fill:rgb(95%,97%,98%);fill-opacity:1;" d="M 0 96 L 32 96 L 32 128 L 0 128 Z "/>
<path style=" stroke:none;fill-rule:nonzero;fill:rgb(95%,97%,98%);fill-opacity:1;" d="M 32 96 L 64 96 L 64 128 L 32 128 Z "/>
<path style=" stroke:none;fill-rule:nonzero;fill:rgb(95%,97%,98%);fill-opacity:1;" d="M 64 96 L 96 96 L 96 128 L 64 128 Z "/>
<path style=" stroke:none;fill-rule:nonzero;fill:rgb(95%,97%,98%);fill-opacity:1;" d="M 96 96 L 128 96 L 128 128 L 96 128 Z "/>
<path style=" stroke:none;fill-rule:nonzero;fill:rgb(95%,97%,98%);fill-opacity:1;" d="M 128 96 L 160 96 L 160 128 L 128 128 Z "/>
<path style=" stroke:none;fill-rule:nonzero;fill:rgb(34%,34%,42%);fill-opacity:1;" d="M 155.839844 123.839844 L 160 123.839844 L 160 128 L 155.839844 128 Z "/>
<path style=" stroke:none;fill-rule:nonzero;fill:rgb(34%,34%,42%);fill-opacity:1;" d="M 155.839844 96 L 160 96 L 160 128 L 155.839844 128 Z "/>
<path style=" stroke:none;fill-rule:nonzero;fill:rgb(34%,34%,42%);fill-opacity:1;" d="M 155.839844 96 L 160 96 L 160 100.160156 L 155.839844 100.160156 Z "/>
<path style=" stroke:none;fill-rule:nonzero;fill:rgb(89%,89%,89%);fill-opacity:1;" d="M 160 96 L 192 96 L 192 128 L 160 128 Z "/>
<path style=" stroke:none;fill-rule:nonzero;fill:rgb(100%,100%,100%);fill-opacity:1;" d="M 192 96 L 224 96 L 224 128 L 192 128 Z "/>
<path style=" stroke:none;fill-rule:nonzero;fill:rgb(89%,89%,89%);fill-opacity:1;" d="M 224 96 L 256 96 L 256 128 L 224 128 Z "/>
<path style=" stroke:none;fill-rule:nonzero;fill:rgb(100%,100%,100%);fill-opacity:1;" d="M 256 96 L 288 96 L 288 128 L 256 128 Z "/>
<path style=" stroke:none;fill-rule:nonzero;fill:rgb(89%,89%,89%);fill-opacity:1;" d="M 288 96 L 320 96 L 320 128 L 288 128 Z "/>
<path style=" stroke:none;fill-rule:nonzero;fill:rgb(100%,100%,100%);fill-opacity:1;" d="M 320 96 L 352 96 L 352 128 L 320 128 Z "/>
<path style=" stroke:none;fill-rule:nonzero;fill:rgb(89%,89%,89%);fill-opacity:1;" d="M 352 96 L 384 96 L 384 128 L 352 128 Z "/>
<path style=" stroke:none;fill-rule:nonzero;fill:rgb(100%,100%,100%);fill-opacity:1;" d="M 384 96 L 416 96 L 416 128 L 384 128 Z "/>
<path style=" stroke:none;fill-rule:nonzero;fill:rgb(89%,89%,89%);fill-opacity:1;" d="M 416 96 L 448 96 L 448 128 L 416 128 Z "/>
<path style=" stroke:none;fill-rule:nonzero;fill:rgb(100%,100%,100%);fill-opacity:1;" d="M 448 96 L 480 96 L 480 128 L 448 128 Z "/>
<path style=" stroke:none;fill-rule:nonzero;fill:rgb(89%,89%,89%);fill-opacity:1;" d="M 480 96 L 512 96 L 512 128 L 480 128 Z "/>
<path style=" stroke:none;fill-rule:nonzero;fill:rgb(82%,67%,97%);fill-opacity:1;" d="M 512 96 L 544 96 L 544 128 L 512 128 Z "/>
<path style=" stroke:none;fill-rule:nonzero;fill:rgb(82%,67%,97%);fill-opacity:1;" d="M 544 96 L 576 96 L 576 128 L 544 128 Z "/>
<path style=" stroke:none;fill-rule:nonzero;fill:rgb(95%,97%,98%);fill-opacity:1;" d="M 576 96 L 608 96 L 608 128 L 576 128 Z "/>
<path style=" stroke:none;fill-rule:nonzero;fill:rgb(34%,34%,42%);fill-opacity:1;" d="M 576 123.839844 L 580.160156 123.839844 L 580.160156 128 L 576 128 Z "/>
<path style=" stroke:none;fill-rule:nonzero;fill:rgb(34%,34%,42%);fill-opacity:1;" d="M 576 96 L 580.160156 96 L 580.160156 100.160156 L 576 100.160156 Z "/>
<path style=" stroke:none;fill-rule:nonzero;fill:rgb(34%,34%,42%);fill-opacity:1;" d="M 576 96 L 580.160156 96 L 580.160156 128 L 576 128 Z "/>
<path style=" stroke:none;fill-rule:nonzero;fill:rgb(95%,97%,98%);fill-opacity:1;" d="M 608 96 L 640 96 L 640 128 L 608 128 Z "/>
<path style=" stroke:none;fill-rule:nonzero;fill:rgb(95%,97%,98%);fill-opacity:1;" d="M 0 128 L 32 128 L 32 160 L 0 160 Z "/>
<path style=" stroke:none;fill-rule:nonzero;fill:rgb(95%,97%,98%);fill-opacity:1;" d="M 32 128 L 64 128 L 64 160 L 32 160 Z "/>
<path style=" stroke:none;fill-rule:nonzero;fill:rgb(34%,34%,42%);fill-opacity:1;" d="M 59.839844 155.839844 L 64 155.839844 L 64 160 L 59.839844 160 Z "/>
<path style=" stroke:none;fill-rule:nonzero;fill:rgb(95%,97%,98%);fill-opacity:1;" d="M 64 128 L 96 128 L 96 160 L 64 160 Z "/>
<path style=" stroke:none;fill-rule:nonzero;fill:rgb(34%,34%,42%);fill-opacity:1;" d="M 64 155.839844 L 96 155.839844 L 96 160 L 64 160 Z "/>
<path style=" stroke:none;fill-rule:nonzero;fill:rgb(34%,34%,42%);fill-opacity:1;" d="M 91.839844 155.839844 L 96 155.839844 L 96 160 L 91.839844 160 Z "/>
<path style=" stroke:none;fill-rule:nonzero;fill:rgb(95%,97%,98%);fill-opacity:1;" d="M 96 128 L 128 128 L 128 160 L 96 160 Z "/>
<path style=" stroke:none;fill-rule:nonzero;fill:rgb(34%,34%,42%);fill-opacity:1;" d="M 96 155.839844 L 100.160156 155.839844 L 100.160156 160 L 96 160 Z "/>
<path style=" stroke:none;fill-rule:nonzero;fill:rgb(34%,34%,42%);fill-opacity:1;" d="M 96 155.839844 L 128 155.839844 L 128 160 L 96 160 Z "/>
<path style=" stroke:none;fill-rule:nonzero;fill:rgb(34%,34%,42%);fill-opacity:1;" d="M 123.839844 155.839844 L 128 155.839844 L 128 160 L 123.839844 160 Z "/>
<path style=" stroke:none;fill-rule:nonzero;fill:rgb(95%,97%,98%);fill-opacity:1;" d="M 128 128 L 160 128 L 160 160 L 128 160 Z "/>
<path style=" stroke:none;fill-rule:nonzero;fill:rgb(34%,34%,42%);fill-opacity:1;" d="M 128 155.839844 L 132.160156 155.839844 L 132.160156 160 L 128 160 Z "/>
<path style=" stroke:none;fill-rule:nonzero;fill:rgb(34%,34%,42%);fill-opacity:1;" d="M 128 155.839844 L 160 155.839844 L 160 160 L 128 160 Z "/>
<path style=" stroke:none;fill-rule:nonzero;fill:rgb(34%,34%,42%);fill-opacity:1;" d="M 155.839844 155.839844 L 160 155.839844 L 160 160 L 155.839844 160 Z "/>
<path style=" stroke:none;fill-rule:nonzero;fill:rgb(34%,34%,42%);fill-opacity:1;" d="M 155.839844 128 L 160 128 L 160 160 L 155.839844 160 Z "/>
<path style=" stroke:none;fill-rule:nonzero;fill:rgb(34%,34%,42%);fill-opacity:1;" d="M 155.839844 128 L 160 128 L 160 132.160156 L 155.839844 132.160156 Z "/>
<path style=" stroke:none;fill-rule:nonzero;fill:rgb(100%,100%,100%);fill-opacity:1;" d="M 160 128 L 192 128 L 192 160 L 160 160 Z "/>
<path style=" stroke:none;fill-rule:nonzero;fill:rgb(89%,89%,89%);fill-opacity:1;" d="M 192 128 L 224 128 L 224 160 L 192 160 Z "/>
<path style=" stroke:none;fill-rule:nonzero;fill:rgb(100%,100%,100%);fill-opacity:1;" d="M 224 128 L 256 128 L 256 160 L 224 160 Z "/>
<path style=" stroke:none;fill-rule:nonzero;fill:rgb(89%,89%,89%);fill-opacity:1;" d="M 256 128 L 288 128 L 288 160 L 256 160 Z "/>
<path style=" stroke:none;fill-rule:nonzero;fill:rgb(100%,100%,100%);fill-opacity:1;" d="M 288 128 L 320 128 L 320 160 L 288 160 Z "/>
<path style=" stroke:none;fill-rule:nonzero;fill:rgb(89%,89%,89%);fill-opacity:1;" d="M 320 128 L 352 128 L 352 160 L 320 160 Z "/>
<path style=" stroke:none;fill-rule:nonzero;fill:rgb(100%,100%,100%);fill-opacity:1;" d="M 352 128 L 384 128 L 384 160 L 352 160 Z "/>
<path style=" stroke:none;fill-rule:nonzero;fill:rgb(89%,89%,89%);fill-opacity:1;" d="M 384 128 L 416 128 L 416 160 L 384 160 Z "/>
<path style=" stroke:none;fill-rule:nonzero;fill:rgb(100%,100%,100%);fill-opacity:1;" d="M 416 128 L 448 128 L 448 160 L 416 160 Z "/>
<path style=" stroke:none;fill-rule:nonzero;fill:rgb(89%,89%,89%);fill-opacity:1;" d="M 448 128 L 480 128 L 480 160 L 448 160 Z "/>
<path style=" stroke:none;fill-rule:nonzero;fill:rgb(100%,100%,100%);fill-opacity:1;" d="M 480 128 L 512 128 L 512 160 L 480 160 Z "/>
<path style=" stroke:none;fill-rule:nonzero;fill:rgb(82%,67%,97%);fill-opacity:1;" d="M 512 128 L 544 128 L 544 160 L 512 160 Z "/>
<path style=" stroke:none;fill-rule:nonzero;fill:rgb(82%,67%,97%);fill-opacity:1;" d="M 544 128 L 576 128 L 576 160 L 544 160 Z "/>
<path style=" stroke:none;fill-rule:nonzero;fill:rgb(95%,97%,98%);fill-opacity:1;" d="M 576 128 L 608 128 L 608 160 L 576 160 Z "/>
<path style=" stroke:none;fill-rule:nonzero;fill:rgb(34%,34%,42%);fill-opacity:1;" d="M 576 128 L 580.160156 128 L 580.160156 132.160156 L 576 132.160156 Z "/>
<path style=" stroke:none;fill-rule:nonzero;fill:rgb(34%,34%,42%);fill-opacity:1;" d="M 576 128 L 580.160156 128 L 580.160156 160 L 576 160 Z "/>
<path style=" stroke:none;fill-rule:nonzero;fill:rgb(95%,97%,98%);fill-opacity:1;" d="M 608 128 L 640 128 L 640 160 L 608 160 Z "/>
<path style=" stroke:none;fill-rule:nonzero;fill:rgb(95%,97%,98%);fill-opacity:1;" d="M 0 160 L 32 160 L 32 192 L 0 192 Z "/>
<path style=" stroke:none;fill-rule:nonzero;fill:rgb(95%,97%,98%);fill-opacity:1;" d="M 32 160 L 64 160 L 64 192 L 32 192 Z "/>
<path style=" stroke:none;fill-rule:nonzero;fill:rgb(34%,34%,42%);fill-opacity:1;" d="M 59.839844 187.839844 L 64 187.839844 L 64 192 L 59.839844 192 Z "/>
<path style=" stroke:none;fill-rule:nonzero;fill:rgb(34%,34%,42%);fill-opacity:1;" d="M 59.839844 160 L 64 160 L 64 192 L 59.839844 192 Z "/>
<path style=" stroke:none;fill-rule:nonzero;fill:rgb(50%,89%,75%);fill-opacity:1;" d="M 64 160 L 96 160 L 96 192 L 64 192 Z "/>
<path style=" stroke:none;fill-rule:nonzero;fill:rgb(50%,89%,75%);fill-opacity:1;" d="M 96 160 L 128 160 L 128 192 L 96 192 Z "/>
<path style=" stroke:none;fill-rule:nonzero;fill:rgb(100%,100%,100%);fill-opacity:1;" d="M 128 160 L 160 160 L 160 192 L 128 192 Z "/>
<path style=" stroke:none;fill-rule:nonzero;fill:rgb(89%,89%,89%);fill-opacity:1;" d="M 160 160 L 192 160 L 192 192 L 160 192 Z "/>
<path style=" stroke:none;fill-rule:nonzero;fill:rgb(100%,100%,100%);fill-opacity:1;" d="M 192 160 L 224 160 L 224 192 L 192 192 Z "/>
<path style=" stroke:none;fill-rule:nonzero;fill:rgb(89%,89%,89%);fill-opacity:1;" d="M 224 160 L 256 160 L 256 192 L 224 192 Z "/>
<path style=" stroke:none;fill-rule:nonzero;fill:rgb(100%,100%,100%);fill-opacity:1;" d="M 256 160 L 288 160 L 288 192 L 256 192 Z "/>
<path style=" stroke:none;fill-rule:nonzero;fill:rgb(89%,89%,89%);fill-opacity:1;" d="M 288 160 L 320 160 L 320 192 L 288 192 Z "/>
<path style=" stroke:none;fill-rule:nonzero;fill:rgb(100%,100%,100%);fill-opacity:1;" d="M 320 160 L 352 160 L 352 192 L 320 192 Z "/>
<path style=" stroke:none;fill-rule:nonzero;fill:rgb(89%,89%,89%);fill-opacity:1;" d="M 352 160 L 384 160 L 384 192 L 352 192 Z "/>
<path style=" stroke:none;fill-rule:nonzero;fill:rgb(100%,100%,100%);fill-opacity:1;" d="M 384 160 L 416 160 L 416 192 L 384 192 Z "/>
<path style=" stroke:none;fill-rule:nonzero;fill:rgb(89%,89%,89%);fill-opacity:1;" d="M 416 160 L 448 160 L 448 192 L 416 192 Z "/>
<path style=" stroke:none;fill-rule:nonzero;fill:rgb(100%,100%,100%);fill-opacity:1;" d="M 448 160 L 480 160 L 480 192 L 448 192 Z "/>
<path style=" stroke:none;fill-rule:nonzero;fill:rgb(95%,97%,98%);fill-opacity:1;" d="M 480 160 L 512 160 L 512 192 L 480 192 Z "/>
<path style=" stroke:none;fill-rule:nonzero;fill:rgb(34%,34%,42%);fill-opacity:1;" d="M 480 187.839844 L 484.160156 187.839844 L 484.160156 192 L 480 192 Z "/>
<path style=" stroke:none;fill-rule:nonzero;fill:rgb(34%,34%,42%);fill-opacity:1;" d="M 507.839844 160 L 512 160 L 512 164.160156 L 507.839844 164.160156 Z "/>
<path style=" stroke:none;fill-rule:nonzero;fill:rgb(34%,34%,42%);fill-opacity:1;" d="M 480 160 L 512 160 L 512 164.160156 L 480 164.160156 Z "/>
<path style=" stroke:none;fill-rule:nonzero;fill:rgb(34%,34%,42%);fill-opacity:1;" d="M 480 160 L 484.160156 160 L 484.160156 164.160156 L 480 164.160156 Z "/>
<path style=" stroke:none;fill-rule:nonzero;fill:rgb(34%,34%,42%);fill-opacity:1;" d="M 480 160 L 484.160156 160 L 484.160156 192 L 480 192 Z "/>
<path style=" stroke:none;fill-rule:nonzero;fill:rgb(95%,97%,98%);fill-opacity:1;" d="M 512 160 L 544 160 L 544 192 L 512 192 Z "/>
<path style=" stroke:none;fill-rule:nonzero;fill:rgb(34%,34%,42%);fill-opacity:1;" d="M 539.839844 160 L 544 160 L 544 164.160156 L 539.839844 164.160156 Z "/>
<path style=" stroke:none;fill-rule:nonzero;fill:rgb(34%,34%,42%);fill-opacity:1;" d="M 512 160 L 544 160 L 544 164.160156 L 512 164.160156 Z "/>
<path style=" stroke:none;fill-rule:nonzero;fill:rgb(34%,34%,42%);fill-opacity:1;" d="M 512 160 L 516.160156 160 L 516.160156 164.160156 L 512 164.160156 Z "/>
<path style=" stroke:none;fill-rule:nonzero;fill:rgb(95%,97%,98%);fill-opacity:1;" d="M 544 160 L 576 160 L 576 192 L 544 192 Z "/>
<path style=" stroke:none;fill-rule:nonzero;fill:rgb(34%,34%,42%);fill-opacity:1;" d="M 544 160 L 576 160 L 576 164.160156 L 544 164.160156 Z "/>
<path style=" stroke:none;fill-rule:nonzero;fill:rgb(34%,34%,42%);fill-opacity:1;" d="M 544 160 L 548.160156 160 L 548.160156 164.160156 L 544 164.160156 Z "/>
<path style=" stroke:none;fill-rule:nonzero;fill:rgb(95%,97%,98%);fill-opacity:1;" d="M 576 160 L 608 160 L 608 192 L 576 192 Z "/>
<path style=" stroke:none;fill-rule:nonzero;fill:rgb(34%,34%,42%);fill-opacity:1;" d="M 576 160 L 580.160156 160 L 580.160156 164.160156 L 576 164.160156 Z "/>
<path style=" stroke:none;fill-rule:nonzero;fill:rgb(95%,97%,98%);fill-opacity:1;" d="M 608 160 L 640 160 L 640 192 L 608 192 Z "/>
<path style=" stroke:none;fill-rule:nonzero;fill:rgb(95%,97%,98%);fill-opacity:1;" d="M 0 192 L 32 192 L 32 224 L 0 224 Z "/>
<path style=" stroke:none;fill-rule:nonzero;fill:rgb(95%,97%,98%);fill-opacity:1;" d="M 32 192 L 64 192 L 64 224 L 32 224 Z "/>
<path style=" stroke:none;fill-rule:nonzero;fill:rgb(34%,34%,42%);fill-opacity:1;" d="M 59.839844 219.839844 L 64 219.839844 L 64 224 L 59.839844 224 Z "/>
<path style=" stroke:none;fill-rule:nonzero;fill:rgb(34%,34%,42%);fill-opacity:1;" d="M 59.839844 192 L 64 192 L 64 224 L 59.839844 224 Z "/>
<path style=" stroke:none;fill-rule:nonzero;fill:rgb(34%,34%,42%);fill-opacity:1;" d="M 59.839844 192 L 64 192 L 64 196.160156 L 59.839844 196.160156 Z "/>
<path style=" stroke:none;fill-rule:nonzero;fill:rgb(50%,89%,75%);fill-opacity:1;" d="M 64 192 L 96 192 L 96 224 L 64 224 Z "/>
<path style=" stroke:none;fill-rule:nonzero;fill:rgb(50%,89%,75%);fill-opacity:1;" d="M 96 192 L 128 192 L 128 224 L 96 224 Z "/>
<path style=" stroke:none;fill-rule:nonzero;fill:rgb(89%,89%,89%);fill-opacity:1;" d="M 128 192 L 160 192 L 160 224 L 128 224 Z "/>
<path style=" stroke:none;fill-rule:nonzero;fill:rgb(100%,100%,100%);fill-opacity:1;" d="M 160 192 L 192 192 L 192 224 L 160 224 Z "/>
<path style=" stroke:none;fill-rule:nonzero;fill:rgb(89%,89%,89%);fill-opacity:1;" d="M 192 192 L 224 192 L 224 224 L 192 224 Z "/>
<path style=" stroke:none;fill-rule:nonzero;fill:rgb(100%,100%,100%);fill-opacity:1;" d="M 224 192 L 256 192 L 256 224 L 224 224 Z "/>
<path style=" stroke:none;fill-rule:nonzero;fill:rgb(89%,89%,89%);fill-opacity:1;" d="M 256 192 L 288 192 L 288 224 L 256 224 Z "/>
<path style=" stroke:none;fill-rule:nonzero;fill:rgb(100%,100%,100%);fill-opacity:1;" d="M 288 192 L 320 192 L 320 224 L 288 224 Z "/>
<path style=" stroke:none;fill-rule:nonzero;fill:rgb(89%,89%,89%);fill-opacity:1;" d="M 320 192 L 352 192 L 352 224 L 320 224 Z "/>
<path style=" stroke:none;fill-rule:nonzero;fill:rgb(100%,100%,100%);fill-opacity:1;" d="M 352 192 L 384 192 L 384 224 L 352 224 Z "/>
<path style=" stroke:none;fill-rule:nonzero;fill:rgb(89%,89%,89%);fill-opacity:1;" d="M 384 192 L 416 192 L 416 224 L 384 224 Z "/>
<path style=" stroke:none;fill-rule:nonzero;fill:rgb(100%,100%,100%);fill-opacity:1;" d="M 416 192 L 448 192 L 448 224 L 416 224 Z "/>
<path style=" stroke:none;fill-rule:nonzero;fill:rgb(89%,89%,89%);fill-opacity:1;" d="M 448 192 L 480 192 L 480 224 L 448 224 Z "/>
<path style=" stroke:none;fill-rule:nonzero;fill:rgb(95%,97%,98%);fill-opacity:1;" d="M 480 192 L 512 192 L 512 224 L 480 224 Z "/>
<path style=" stroke:none;fill-rule:nonzero;fill:rgb(34%,34%,42%);fill-opacity:1;" d="M 480 219.839844 L 484.160156 219.839844 L 484.160156 224 L 480 224 Z "/>
<path style=" stroke:none;fill-rule:nonzero;fill:rgb(34%,34%,42%);fill-opacity:1;" d="M 480 192 L 484.160156 192 L 484.160156 196.160156 L 480 196.160156 Z "/>
<path style=" stroke:none;fill-rule:nonzero;fill:rgb(34%,34%,42%);fill-opacity:1;" d="M 480 192 L 484.160156 192 L 484.160156 224 L 480 224 Z "/>
<path style=" stroke:none;fill-rule:nonzero;fill:rgb(95%,97%,98%);fill-opacity:1;" d="M 512 192 L 544 192 L 544 224 L 512 224 Z "/>
<path style=" stroke:none;fill-rule:nonzero;fill:rgb(95%,97%,98%);fill-opacity:1;" d="M 544 192 L 576 192 L 576 224 L 544 224 Z "/>
<path style=" stroke:none;fill-rule:nonzero;fill:rgb(95%,97%,98%);fill-opacity:1;" d="M 576 192 L 608 192 L 608 224 L 576 224 Z "/>
<path style=" stroke:none;fill-rule:nonzero;fill:rgb(95%,97%,98%);fill-opacity:1;" d="M 608 192 L 640 192 L 640 224 L 608 224 Z "/>
<path style=" stroke:none;fill-rule:nonzero;fill:rgb(95%,97%,98%);fill-opacity:1;" d="M 0 224 L 32 224 L 32 256 L 0 256 Z "/>
<path style=" stroke:none;fill-rule:nonzero;fill:rgb(95%,97%,98%);fill-opacity:1;" d="M 32 224 L 64 224 L 64 256 L 32 256 Z "/>
<path style=" stroke:none;fill-rule:nonzero;fill:rgb(34%,34%,42%);fill-opacity:1;" d="M 59.839844 224 L 64 224 L 64 256 L 59.839844 256 Z "/>
<path style=" stroke:none;fill-rule:nonzero;fill:rgb(34%,34%,42%);fill-opacity:1;" d="M 59.839844 224 L 64 224 L 64 228.160156 L 59.839844 228.160156 Z "/>
<path style=" stroke:none;fill-rule:nonzero;fill:rgb(50%,89%,75%);fill-opacity:1;" d="M 64 224 L 96 224 L 96 256 L 64 256 Z "/>
<path style=" stroke:none;fill-rule:nonzero;fill:rgb(50%,89%,75%);fill-opacity:1;" d="M 96 224 L 128 224 L 128 256 L 96 256 Z "/>
<path style=" stroke:none;fill-rule:nonzero;fill:rgb(100%,100%,100%);fill-opacity:1;" d="M 128 224 L 160 224 L 160 256 L 128 256 Z "/>
<path style=" stroke:none;fill-rule:nonzero;fill:rgb(89%,89%,89%);fill-opacity:1;" d="M 160 224 L 192 224 L 192 256 L 160 256 Z "/>
<path style=" stroke:none;fill-rule:nonzero;fill:rgb(100%,100%,100%);fill-opacity:1;" d="M 192 224 L 224 224 L 224 256 L 192 256 Z "/>
<path style=" stroke:none;fill-rule:nonzero;fill:rgb(89%,89%,89%);fill-opacity:1;" d="M 224 224 L 256 224 L 256 256 L 224 256 Z "/>
<path style=" stroke:none;fill-rule:nonzero;fill:rgb(100%,100%,100%);fill-opacity:1;" d="M 256 224 L 288 224 L 288 256 L 256 256 Z "/>
<path style=" stroke:none;fill-rule:nonzero;fill:rgb(89%,89%,89%);fill-opacity:1;" d="M 288 224 L 320 224 L 320 256 L 288 256 Z "/>
<path style=" stroke:none;fill-rule:nonzero;fill:rgb(100%,100%,100%);fill-opacity:1;" d="M 320 224 L 352 224 L 352 256 L 320 256 Z "/>
<path style=" stroke:none;fill-rule:nonzero;fill:rgb(89%,89%,89%);fill-opacity:1;" d="M 352 224 L 384 224 L 384 256 L 352 256 Z "/>
<path style=" stroke:none;fill-rule:nonzero;fill:rgb(100%,100%,100%);fill-opacity:1;" d="M 384 224 L 416 224 L 416 256 L 384 256 Z "/>
<path style=" stroke:none;fill-rule:nonzero;fill:rgb(89%,89%,89%);fill-opacity:1;" d="M 416 224 L 448 224 L 448 256 L 416 256 Z "/>
<path style=" stroke:none;fill-rule:nonzero;fill:rgb(100%,100%,100%);fill-opacity:1;" d="M 448 224 L 480 224 L 480 256 L 448 256 Z "/>
<path style=" stroke:none;fill-rule:nonzero;fill:rgb(95%,97%,98%);fill-opacity:1;" d="M 480 224 L 512 224 L 512 256 L 480 256 Z "/>
<path style=" stroke:none;fill-rule:nonzero;fill:rgb(34%,34%,42%);fill-opacity:1;" d="M 480 224 L 484.160156 224 L 484.160156 228.160156 L 480 228.160156 Z "/>
<path style=" stroke:none;fill-rule:nonzero;fill:rgb(34%,34%,42%);fill-opacity:1;" d="M 480 224 L 484.160156 224 L 484.160156 256 L 480 256 Z "/>
<path style=" stroke:none;fill-rule:nonzero;fill:rgb(95%,97%,98%);fill-opacity:1;" d="M 512 224 L 544 224 L 544 256 L 512 256 Z "/>
<path style=" stroke:none;fill-rule:nonzero;fill:rgb(95%,97%,98%);fill-opacity:1;" d="M 544 224 L 576 224 L 576 256 L 544 256 Z "/>
<path style=" stroke:none;fill-rule:nonzero;fill:rgb(95%,97%,98%);fill-opacity:1;" d="M 576 224 L 608 224 L 608 256 L 576 256 Z "/>
<path style=" stroke:none;fill-rule:nonzero;fill:rgb(95%,97%,98%);fill-opacity:1;" d="M 608 224 L 640 224 L 640 256 L 608 256 Z "/>
<path style=" stroke:none;fill-rule:nonzero;fill:rgb(95%,97%,98%);fill-opacity:1;" d="M 0 256 L 32 256 L 32 288 L 0 288 Z "/>
<path style=" stroke:none;fill-rule:nonzero;fill:rgb(95%,97%,98%);fill-opacity:1;" d="M 32 256 L 64 256 L 64 288 L 32 288 Z "/>
<path style=" stroke:none;fill-rule:nonzero;fill:rgb(34%,34%,42%);fill-opacity:1;" d="M 59.839844 256 L 64 256 L 64 260.160156 L 59.839844 260.160156 Z "/>
<path style=" stroke:none;fill-rule:nonzero;fill:rgb(95%,97%,98%);fill-opacity:1;" d="M 64 256 L 96 256 L 96 288 L 64 288 Z "/>
<path style=" stroke:none;fill-rule:nonzero;fill:rgb(34%,34%,42%);fill-opacity:1;" d="M 91.839844 256 L 96 256 L 96 260.160156 L 91.839844 260.160156 Z "/>
<path style=" stroke:none;fill-rule:nonzero;fill:rgb(34%,34%,42%);fill-opacity:1;" d="M 64 256 L 96 256 L 96 260.160156 L 64 260.160156 Z "/>
<path style=" stroke:none;fill-rule:nonzero;fill:rgb(95%,97%,98%);fill-opacity:1;" d="M 96 256 L 128 256 L 128 288 L 96 288 Z "/>
<path style=" stroke:none;fill-rule:nonzero;fill:rgb(34%,34%,42%);fill-opacity:1;" d="M 123.839844 256 L 128 256 L 128 260.160156 L 123.839844 260.160156 Z "/>
<path style=" stroke:none;fill-rule:nonzero;fill:rgb(34%,34%,42%);fill-opacity:1;" d="M 96 256 L 128 256 L 128 260.160156 L 96 260.160156 Z "/>
<path style=" stroke:none;fill-rule:nonzero;fill:rgb(34%,34%,42%);fill-opacity:1;" d="M 96 256 L 100.160156 256 L 100.160156 260.160156 L 96 260.160156 Z "/>
<path style=" stroke:none;fill-rule:nonzero;fill:rgb(95%,97%,98%);fill-opacity:1;" d="M 128 256 L 160 256 L 160 288 L 128 288 Z "/>
<path style=" stroke:none;fill-rule:nonzero;fill:rgb(34%,34%,42%);fill-opacity:1;" d="M 155.839844 256 L 160 256 L 160 260.160156 L 155.839844 260.160156 Z "/>
<path style=" stroke:none;fill-rule:nonzero;fill:rgb(34%,34%,42%);fill-opacity:1;" d="M 128 256 L 160 256 L 160 260.160156 L 128 260.160156 Z "/>
<path style=" stroke:none;fill-rule:nonzero;fill:rgb(34%,34%,42%);fill-opacity:1;" d="M 128 256 L 132.160156 256 L 132.160156 260.160156 L 128 260.160156 Z "/>
<path style=" stroke:none;fill-rule:nonzero;fill:rgb(95%,97%,98%);fill-opacity:1;" d="M 160 256 L 192 256 L 192 288 L 160 288 Z "/>
<path style=" stroke:none;fill-rule:nonzero;fill:rgb(34%,34%,42%);fill-opacity:1;" d="M 187.839844 256 L 192 256 L 192 260.160156 L 187.839844 260.160156 Z "/>
<path style=" stroke:none;fill-rule:nonzero;fill:rgb(34%,34%,42%);fill-opacity:1;" d="M 160 256 L 192 256 L 192 260.160156 L 160 260.160156 Z "/>
<path style=" stroke:none;fill-rule:nonzero;fill:rgb(34%,34%,42%);fill-opacity:1;" d="M 160 256 L 164.160156 256 L 164.160156 260.160156 L 160 260.160156 Z "/>
<path style=" stroke:none;fill-rule:nonzero;fill:rgb(95%,97%,98%);fill-opacity:1;" d="M 192 256 L 224 256 L 224 288 L 192 288 Z "/>
<path style=" stroke:none;fill-rule:nonzero;fill:rgb(34%,34%,42%);fill-opacity:1;" d="M 219.839844 256 L 224 256 L 224 260.160156 L 219.839844 260.160156 Z "/>
<path style=" stroke:none;fill-rule:nonzero;fill:rgb(34%,34%,42%);fill-opacity:1;" d="M 192 256 L 224 256 L 224 260.160156 L 192 260.160156 Z "/>
<path style=" stroke:none;fill-rule:nonzero;fill:rgb(34%,34%,42%);fill-opacity:1;" d="M 192 256 L 196.160156 256 L 196.160156 260.160156 L 192 260.160156 Z "/>
<path style=" stroke:none;fill-rule:nonzero;fill:rgb(95%,97%,98%);fill-opacity:1;" d="M 224 256 L 256 256 L 256 288 L 224 288 Z "/>
<path style=" stroke:none;fill-rule:nonzero;fill:rgb(34%,34%,42%);fill-opacity:1;" d="M 251.839844 256 L 256 256 L 256 260.160156 L 251.839844 260.160156 Z "/>
<path style=" stroke:none;fill-rule:nonzero;fill:rgb(34%,34%,42%);fill-opacity:1;" d="M 224 256 L 256 256 L 256 260.160156 L 224 260.160156 Z "/>
<path style=" stroke:none;fill-rule:nonzero;fill:rgb(34%,34%,42%);fill-opacity:1;" d="M 224 256 L 228.160156 256 L 228.160156 260.160156 L 224 260.160156 Z "/>
<path style=" stroke:none;fill-rule:nonzero;fill:rgb(95%,97%,98%);fill-opacity:1;" d="M 256 256 L 288 256 L 288 288 L 256 288 Z "/>
<path style=" stroke:none;fill-rule:nonzero;fill:rgb(34%,34%,42%);fill-opacity:1;" d="M 283.839844 256 L 288 256 L 288 260.160156 L 283.839844 260.160156 Z "/>
<path style=" stroke:none;fill-rule:nonzero;fill:rgb(34%,34%,42%);fill-opacity:1;" d="M 256 256 L 288 256 L 288 260.160156 L 256 260.160156 Z "/>
<path style=" stroke:none;fill-rule:nonzero;fill:rgb(34%,34%,42%);fill-opacity:1;" d="M 256 256 L 260.160156 256 L 260.160156 260.160156 L 256 260.160156 Z "/>
<path style=" stroke:none;fill-rule:nonzero;fill:rgb(95%,97%,98%);fill-opacity:1;" d="M 288 256 L 320 256 L 320 288 L 288 288 Z "/>
<path style=" stroke:none;fill-rule:nonzero;fill:rgb(34%,34%,42%);fill-opacity:1;" d="M 315.839844 256 L 320 256 L 320 260.160156 L 315.839844 260.160156 Z "/>
<path style=" stroke:none;fill-rule:nonzero;fill:rgb(34%,34%,42%);fill-opacity:1;" d="M 288 256 L 320 256 L 320 260.160156 L 288 260.160156 Z "/>
<path style=" stroke:none;fill-rule:nonzero;fill:rgb(34%,34%,42%);fill-opacity:1;" d="M 288 256 L 292.160156 256 L 292.160156 260.160156 L 288 260.160156 Z "/>
<path style=" stroke:none;fill-rule:nonzero;fill:rgb(95%,97%,98%);fill-opacity:1;" d="M 320 256 L 352 256 L 352 288 L 320 288 Z "/>
<path style=" stroke:none;fill-rule:nonzero;fill:rgb(34%,34%,42%);fill-opacity:1;" d="M 347.839844 256 L 352 256 L 352 260.160156 L 347.839844 260.160156 Z "/>
<path style=" stroke:none;fill-rule:nonzero;fill:rgb(34%,34%,42%);fill-opacity:1;" d="M 320 256 L 352 256 L 352 260.160156 L 320 260.160156 Z "/>
<path style=" stroke:none;fill-rule:nonzero;fill:rgb(34%,34%,42%);fill-opacity:1;" d="M 320 256 L 324.160156 256 L 324.160156 260.160156 L 320 260.160156 Z "/>
<path style=" stroke:none;fill-rule:nonzero;fill:rgb(95%,97%,98%);fill-opacity:1;" d="M 352 256 L 384 256 L 384 288 L 352 288 Z "/>
<path style=" stroke:none;fill-rule:nonzero;fill:rgb(34%,34%,42%);fill-opacity:1;" d="M 379.839844 256 L 384 256 L 384 260.160156 L 379.839844 260.160156 Z "/>
<path style=" stroke:none;fill-rule:nonzero;fill:rgb(34%,34%,42%);fill-opacity:1;" d="M 352 256 L 384 256 L 384 260.160156 L 352 260.160156 Z "/>
<path style=" stroke:none;fill-rule:nonzero;fill:rgb(34%,34%,42%);fill-opacity:1;" d="M 352 256 L 356.160156 256 L 356.160156 260.160156 L 352 260.160156 Z "/>
<path style=" stroke:none;fill-rule:nonzero;fill:rgb(95%,97%,98%);fill-opacity:1;" d="M 384 256 L 416 256 L 416 288 L 384 288 Z "/>
<path style=" stroke:none;fill-rule:nonzero;fill:rgb(34%,34%,42%);fill-opacity:1;" d="M 411.839844 256 L 416 256 L 416 260.160156 L 411.839844 260.160156 Z "/>
<path style=" stroke:none;fill-rule:nonzero;fill:rgb(34%,34%,42%);fill-opacity:1;" d="M 384 256 L 416 256 L 416 260.160156 L 384 260.160156 Z "/>
<path style=" stroke:none;fill-rule:nonzero;fill:rgb(34%,34%,42%);fill-opacity:1;" d="M 384 256 L 388.160156 256 L 388.160156 260.160156 L 384 260.160156 Z "/>
<path style=" stroke:none;fill-rule:nonzero;fill:rgb(95%,97%,98%);fill-opacity:1;" d="M 416 256 L 448 256 L 448 288 L 416 288 Z "/>
<path style=" stroke:none;fill-rule:nonzero;fill:rgb(34%,34%,42%);fill-opacity:1;" d="M 443.839844 256 L 448 256 L 448 260.160156 L 443.839844 260.160156 Z "/>
<path style=" stroke:none;fill-rule:nonzero;fill:rgb(34%,34%,42%);fill-opacity:1;" d="M 416 256 L 448 256 L 448 260.160156 L 416 260.160156 Z "/>
<path style=" stroke:none;fill-rule:nonzero;fill:rgb(34%,34%,42%);fill-opacity:1;" d="M 416 256 L 420.160156 256 L 420.160156 260.160156 L 416 260.160156 Z "/>
<path style=" stroke:none;fill-rule:nonzero;fill:rgb(95%,97%,98%);fill-opacity:1;" d="M 448 256 L 480 256 L 480 288 L 448 288 Z "/>
<path style=" stroke:none;fill-rule:nonzero;fill:rgb(34%,34%,42%);fill-opacity:1;" d="M 448 256 L 480 256 L 480 260.160156 L 448 260.160156 Z "/>
<path style=" stroke:none;fill-rule:nonzero;fill:rgb(34%,34%,42%);fill-opacity:1;" d="M 448 256 L 452.160156 256 L 452.160156 260.160156 L 448 260.160156 Z "/>
<path style=" stroke:none;fill-rule:nonzero;fill:rgb(95%,97%,98%);fill-opacity:1;" d="M 480 256 L 512 256 L 512 288 L 480 288 Z "/>
<path style=" stroke:none;fill-rule:nonzero;fill:rgb(34%,34%,42%);fill-opacity:1;" d="M 480 256 L 484.160156 256 L 484.160156 260.160156 L 480 260.160156 Z "/>
<path style=" stroke:none;fill-rule:nonzero;fill:rgb(95%,97%,98%);fill-opacity:1;" d="M 512 256 L 544 256 L 544 288 L 512 288 Z "/>
<path style=" stroke:none;fill-rule:nonzero;fill:rgb(95%,97%,98%);fill-opacity:1;" d="M 544 256 L 576 256 L 576 288 L 544 288 Z "/>
<path style=" stroke:none;fill-rule:nonzero;fill:rgb(95%,97%,98%);fill-opacity:1;" d="M 576 256 L 608 256 L 608 288 L 576 288 Z "/>
<path style=" stroke:none;fill-rule:nonzero;fill:rgb(95%,97%,98%);fill-opacity:1;" d="M 608 256 L 640 256 L 640 288 L 608 288 Z "/>
<path style=" stroke:none;fill-rule:nonzero;fill:rgb(95%,97%,98%);fill-opacity:1;" d="M 0 288 L 32 288 L 32 320 L 0 320 Z "/>
<path style=" stroke:none;fill-rule:nonzero;fill:rgb(95%,97%,98%);fill-opacity:1;" d="M 32 288 L 64 288 L 64 320 L 32 320 Z "/>
<path style=" stroke:none;fill-rule:nonzero;fill:rgb(95%,97%,98%);fill-opacity:1;" d="M 64 288 L 96 288 L 96 320 L 64 320 Z "/>
<path style=" stroke:none;fill-rule:nonzero;fill:rgb(95%,97%,98%);fill-opacity:1;" d="M 96 288 L 128 288 L 128 320 L 96 320 Z "/>
<path style=" stroke:none;fill-rule:nonzero;fill:rgb(95%,97%,98%);fill-opacity:1;" d="M 128 288 L 160 288 L 160 320 L 128 320 Z "/>
<path style=" stroke:none;fill-rule:nonzero;fill:rgb(95%,97%,98%);fill-opacity:1;" d="M 160 288 L 192 288 L 192 320 L 160 320 Z "/>
<path style=" stroke:none;fill-rule:nonzero;fill:rgb(95%,97%,98%);fill-opacity:1;" d="M 192 288 L 224 288 L 224 320 L 192 320 Z "/>
<path style=" stroke:none;fill-rule:nonzero;fill:rgb(95%,97%,98%);fill-opacity:1;" d="M 224 288 L 256 288 L 256 320 L 224 320 Z "/>
<path style=" stroke:none;fill-rule:nonzero;fill:rgb(95%,97%,98%);fill-opacity:1;" d="M 256 288 L 288 288 L 288 320 L 256 320 Z "/>
<path style=" stroke:none;fill-rule:nonzero;fill:rgb(95%,97%,98%);fill-opacity:1;" d="M 288 288 L 320 288 L 320 320 L 288 320 Z "/>
<path style=" stroke:none;fill-rule:nonzero;fill:rgb(95%,97%,98%);fill-opacity:1;" d="M 320 288 L 352 288 L 352 320 L 320 320 Z "/>
<path style=" stroke:none;fill-rule:nonzero;fill:rgb(95%,97%,98%);fill-opacity:1;" d="M 352 288 L 384 288 L 384 320 L 352 320 Z "/>
<path style=" stroke:none;fill-rule:nonzero;fill:rgb(95%,97%,98%);fill-opacity:1;" d="M 384 288 L 416 288 L 416 320 L 384 320 Z "/>
<path style=" stroke:none;fill-rule:nonzero;fill:rgb(95%,97%,98%);fill-opacity:1;" d="M 416 288 L 448 288 L 448 320 L 416 320 Z "/>
<path style=" stroke:none;fill-rule:nonzero;fill:rgb(95%,97%,98%);fill-opacity:1;" d="M 448 288 L 480 288 L 480 320 L 448 320 Z "/>
<path style=" stroke:none;fill-rule:nonzero;fill:rgb(95%,97%,98%);fill-opacity:1;" d="M 480 288 L 512 288 L 512 320 L 480 320 Z "/>
<path style=" stroke:none;fill-rule:nonzero;fill:rgb(95%,97%,98%);fill-opacity:1;" d="M 512 288 L 544 288 L 544 320 L 512 320 Z "/>
<path style=" stroke:none;fill-rule:nonzero;fill:rgb(95%,97%,98%);fill-opacity:1;" d="M 544 288 L 576 288 L 576 320 L 544 320 Z "/>
<path style=" stroke:none;fill-rule:nonzero;fill:rgb(95%,97%,98%);fill-opacity:1;" d="M 576 288 L 608 288 L 608 320 L 576 320 Z "/>
<path style=" stroke:none;fill-rule:nonzero;fill:rgb(95%,97%,98%);fill-opacity:1;" d="M 608 288 L 640 288 L 640 320 L 608 320 Z "/>
<path style=" stroke:none;fill-rule:nonzero;fill:rgb(22%,40%,80%);fill-opacity:0.84;" d="M 184.640625 278.398438 C 184.640625 283.171875 180.773438 287.039063 176 287.039063 C 171.226563 287.039063 167.359375 283.171875 167.359375 278.398438 C 167.359375 273.628906 171.226563 269.761719 176 269.761719 C 180.773438 269.761719 184.640625 273.628906 184.640625 278.398438 "/>
<path style=" stroke:none;fill-rule:nonzero;fill:rgb(22%,40%,80%);fill-opacity:0.84;" d="M 184.640625 214.398438 C 184.640625 219.171875 180.773438 223.039063 176 223.039063 C 171.226563 223.039063 167.359375 219.171875 167.359375 214.398438 C 167.359375 209.628906 171.226563 205.761719 176 205.761719 C 180.773438 205.761719 184.640625 209.628906 184.640625 214.398438 "/>
<path style=" stroke:none;fill-rule:nonzero;fill:rgb(22%,40%,80%);fill-opacity:0.84;" d="M 184.640625 150.398438 C 184.640625 155.171875 180.773438 159.039063 176 159.039063 C 171.226563 159.039063 167.359375 155.171875 167.359375 150.398438 C 167.359375 145.628906 171.226563 141.761719 176 141.761719 C 180.773438 141.761719 184.640625 145.628906 184.640625 150.398438 "/>
<path style=" stroke:none;fill-rule:nonzero;fill:rgb(22%,40%,80%);fill-opacity:0.84;" d="M 184.640625 86.398438 C 184.640625 91.171875 180.773438 95.039063 176 95.039063 C 171.226563 95.039063 167.359375 91.171875 167.359375 86.398438 C 167.359375 81.628906 171.226563 77.761719 176 77.761719 C 180.773438 77.761719 184.640625 81.628906 184.640625 86.398438 "/>
<path style=" stroke:none;fill-rule:nonzero;fill:rgb(22%,40%,80%);fill-opacity:0.84;" d="M 152.640625 41.601563 C 152.640625 46.371094 148.773438 50.238281 144 50.238281 C 139.226563 50.238281 135.359375 46.371094 135.359375 41.601563 C 135.359375 36.828125 139.226563 32.960938 144 32.960938 C 148.773438 32.960938 152.640625 36.828125 152.640625 41.601563 "/>
<path style=" stroke:none;fill-rule:nonzero;fill:rgb(22%,40%,80%);fill-opacity:0.84;" d="M 152.640625 105.601563 C 152.640625 110.371094 148.773438 114.238281 144 114.238281 C 139.226563 114.238281 135.359375 110.371094 135.359375 105.601563 C 135.359375 100.828125 139.226563 96.960938 144 96.960938 C 148.773438 96.960938 152.640625 100.828125 152.640625 105.601563 "/>
<path style=" stroke:none;fill-rule:nonzero;fill:rgb(22%,40%,80%);fill-opacity:0.84;" d="M 152.640625 169.601563 C 152.640625 174.371094 148.773438 178.238281 144 178.238281 C 139.226563 178.238281 135.359375 174.371094 135.359375 169.601563 C 135.359375 164.828125 139.226563 160.960938 144 160.960938 C 148.773438 160.960938 152.640625 164.828125 152.640625 169.601563 "/>
<path style=" stroke:none;fill-rule:nonzero;fill:rgb(22%,40%,80%);fill-opacity:0.84;" d="M 152.640625 233.601563 C 152.640625 238.371094 148.773438 242.238281 144 242.238281 C 139.226563 242.238281 135.359375 238.371094 135.359375 233.601563 C 135.359375 228.828125 139.226563 224.960938 144 224.960938 C 148.773438 224.960938 152.640625 228.828125 152.640625 233.601563 "/>
<path style=" stroke:none;fill-rule:nonzero;fill:rgb(22%,40%,80%);fill-opacity:0.84;" d="M 248.640625 278.398438 C 248.640625 283.171875 244.773438 287.039063 240 287.039063 C 235.226563 287.039063 231.359375 283.171875 231.359375 278.398438 C 231.359375 273.628906 235.226563 269.761719 240 269.761719 C 244.773438 269.761719 248.640625 273.628906 248.640625 278.398438 "/>
<path style=" stroke:none;fill-rule:nonzero;fill:rgb(22%,40%,80%);fill-opacity:0.84;" d="M 248.640625 214.398438 C 248.640625 219.171875 244.773438 223.039063 240 223.039063 C 235.226563 223.039063 231.359375 219.171875 231.359375 214.398438 C 231.359375 209.628906 235.226563 205.761719 240 205.761719 C 244.773438 205.761719 248.640625 209.628906 248.640625 214.398438 "/>
<path style=" stroke:none;fill-rule:nonzero;fill:rgb(22%,40%,80%);fill-opacity:0.84;" d="M 248.640625 150.398438 C 248.640625 155.171875 244.773438 159.039063 240 159.039063 C 235.226563 159.039063 231.359375 155.171875 231.359375 150.398438 C 231.359375 145.628906 235.226563 141.761719 240 141.761719 C 244.773438 141.761719 248.640625 145.628906 248.640625 150.398438 "/>
<path style=" stroke:none;fill-rule:nonzero;fill:rgb(22%,40%,80%);fill-opacity:0.84;" d="M 248.640625 86.398438 C 248.640625 91.171875 244.773438 95.039063 240 95.039063 C 235.226563 95.039063 231.359375 91.171875 231.359375 86.398438 C 231.359375 81.628906 235.226563 77.761719 240 77.761719 C 244.773438 77.761719 248.640625 81.628906 248.640625 86.398438 "/>
<path style=" stroke:none;fill-rule:nonzero;fill:rgb(22%,40%,80%);fill-opacity:0.84;" d="M 216.640625 41.601563 C 216.640625 46.371094 212.773438 50.238281 208 50.238281 C 203.226563 50.238281 199.359375 46.371094 199.359375 41.601563 C 199.359375 36.828125 203.226563 32.960938 208 32.960938 C 212.773438 32.960938 216.640625 36.828125 216.640625 41.601563 "/>
<path style=" stroke:none;fill-rule:nonzero;fill:rgb(22%,40%,80%);fill-opacity:0.84;" d="M 216.640625 105.601563 C 216.640625 110.371094 212.773438 114.238281 208 114.238281 C 203.226563 114.238281 199.359375 110.371094 199.359375 105.601563 C 199.359375 100.828125 203.226563 96.960938 208 96.960938 C 212.773438 96.960938 216.640625 100.828125 216.640625 105.601563 "/>
<path style=" stroke:none;fill-rule:nonzero;fill:rgb(22%,40%,80%);fill-opacity:0.84;" d="M 216.640625 169.601563 C 216.640625 174.371094 212.773438 178.238281 208 178.238281 C 203.226563 178.238281 199.359375 174.371094 199.359375 169.601563 C 199.359375 164.828125 203.226563 160.960938 208 160.960938 C 212.773438 160.960938 216.640625 164.828125 216.640625 169.601563 "/>
<path style=" stroke:none;fill-rule:nonzero;fill:rgb(22%,40%,80%);fill-opacity:0.84;" d="M 216.640625 233.601563 C 216.640625 238.371094 212.773438 242.238281 208 242.238281 C 203.226563 242.238281 199.359375 238.371094 199.359375 233.601563 C 199.359375 228.828125 203.226563 224.960938 208 224.960938 C 212.773438 224.960938 216.640625 228.828125 216.640625 233.601563 "/>
<path style=" stroke:none;fill-rule:nonzero;fill:rgb(22%,40%,80%);fill-opacity:0.84;" d="M 312.640625 278.398438 C 312.640625 283.171875 308.773438 287.039063 304 287.039063 C 299.226563 287.039063 295.359375 283.171875 295.359375 278.398438 C 295.359375 273.628906 299.226563 269.761719 304 269.761719 C 308.773438 269.761719 312.640625 273.628906 312.640625 278.398438 "/>
<path style=" stroke:none;fill-rule:nonzero;fill:rgb(22%,40%,80%);fill-opacity:0.84;" d="M 312.640625 214.398438 C 312.640625 219.171875 308.773438 223.039063 304 223.039063 C 299.226563 223.039063 295.359375 219.171875 295.359375 214.398438 C 295.359375 209.628906 299.226563 205.761719 304 205.761719 C 308.773438 205.761719 312.640625 209.628906 312.640625 214.398438 "/>
<path style=" stroke:none;fill-rule:nonzero;fill:rgb(22%,40%,80%);fill-opacity:0.84;" d="M 312.640625 150.398438 C 312.640625 155.171875 308.773438 159.039063 304 159.039063 C 299.226563 159.039063 295.359375 155.171875 295.359375 150.398438 C 295.359375 145.628906 299.226563 141.761719 304 141.761719 C 308.773438 141.761719 312.640625 145.628906 312.640625 150.398438 "/>
<path style=" stroke:none;fill-rule:nonzero;fill:rgb(22%,40%,80%);fill-opacity:0.84;" d="M 312.640625 86.398438 C 312.640625 91.171875 308.773438 95.039063 304 95.039063 C 299.226563 95.039063 295.359375 91.171875 295.359375 86.398438 C 295.359375 81.628906 299.226563 77.761719 304 77.761719 C 308.773438 77.761719 312.640625 81.628906 312.640625 86.398438 "/>
<path style=" stroke:none;fill-rule:nonzero;fill:rgb(22%,40%,80%);fill-opacity:0.84;" d="M 280.640625 41.601563 C 280.640625 46.371094 276.773438 50.238281 272 50.238281 C 267.226563 50.238281 263.359375 46.371094 263.359375 41.601563 C 263.359375 36.828125 267.226563 32.960938 272 32.960938 C 276.773438 32.960938 280.640625 36.828125 280.640625 41.601563 "/>
<path style=" stroke:none;fill-rule:nonzero;fill:rgb(22%,40%,80%);fill-opacity:0.84;" d="M 280.640625 105.601563 C 280.640625 110.371094 276.773438 114.238281 272 114.238281 C 267.226563 114.238281 263.359375 110.371094 263.359375 105.601563 C 263.359375 100.828125 267.226563 96.960938 272 96.960938 C 276.773438 96.960938 280.640625 100.828125 280.640625 105.601563 "/>
<path style=" stroke:none;fill-rule:nonzero;fill:rgb(22%,40%,80%);fill-opacity:0.84;" d="M 280.640625 169.601563 C 280.640625 174.371094 276.773438 178.238281 272 178.238281 C 267.226563 178.238281 263.359375 174.371094 263.359375 169.601563 C 263.359375 164.828125 267.226563 160.960938 272 160.960938 C 276.773438 160.960938 280.640625 164.828125 280.640625 169.601563 "/>
<path style=" stroke:none;fill-rule:nonzero;fill:rgb(22%,40%,80%);fill-opacity:0.84;" d="M 280.640625 233.601563 C 280.640625 238.371094 276.773438 242.238281 272 242.238281 C 267.226563 242.238281 263.359375 238.371094 263.359375 233.601563 C 263.359375 228.828125 267.226563 224.960938 272 224.960938 C 276.773438 224.960938 280.640625 228.828125 280.640625 233.601563 "/>
<path style=" stroke:none;fill-rule:nonzero;fill:rgb(22%,40%,80%);fill-opacity:0.84;" d="M 376.640625 278.398438 C 376.640625 283.171875 372.773438 287.039063 368 287.039063 C 363.226563 287.039063 359.359375 283.171875 359.359375 278.398438 C 359.359375 273.628906 363.226563 269.761719 368 269.761719 C 372.773438 269.761719 376.640625 273.628906 376.640625 278.398438 "/>
<path style=" stroke:none;fill-rule:nonzero;fill:rgb(22%,40%,80%);fill-opacity:0.84;" d="M 376.640625 214.398438 C 376.640625 219.171875 372.773438 223.039063 368 223.039063 C 363.226563 223.039063 359.359375 219.171875 359.359375 214.398438 C 359.359375 209.628906 363.226563 205.761719 368 205.761719 C 372.773438 205.761719 376.640625 209.628906 376.640625 214.398438 "/>
<path style=" stroke:none;fill-rule:nonzero;fill:rgb(22%,40%,80%);fill-opacity:0.84;" d="M 376.640625 150.398438 C 376.640625 155.171875 372.773438 159.039063 368 159.039063 C 363.226563 159.039063 359.359375 155.171875 359.359375 150.398438 C 359.359375 145.628906 363.226563 141.761719 368 141.761719 C 372.773438 141.761719 376.640625 145.628906 376.640625 150.398438 "/>
<path style=" stroke:none;fill-rule:nonzero;fill:rgb(22%,40%,80%);fill-opacity:0.84;" d="M 376.640625 86.398438 C 376.640625 91.171875 372.773438 95.039063 368 95.039063 C 363.226563 95.039063 359.359375 91.171875 359.359375 86.398438 C 359.359375 81.628906 363.226563 77.761719 368 77.761719 C 372.773438 77.761719 376.640625 81.628906 376.640625 86.398438 "/>
<path style=" stroke:none;fill-rule:nonzero;fill:rgb(22%,40%,80%);fill-opacity:0.84;" d="M 344.640625 41.601563 C 344.640625 46.371094 340.773438 50.238281 336 50.238281 C 331.226563 50.238281 327.359375 46.371094 327.359375 41.601563 C 327.359375 36.828125 331.226563 32.960938 336 32.960938 C 340.773438 32.960938 344.640625 36.828125 344.640625 41.601563 "/>
<path style=" stroke:none;fill-rule:nonzero;fill:rgb(22%,40%,80%);fill-opacity:0.84;" d="M 344.640625 105.601563 C 344.640625 110.371094 340.773438 114.238281 336 114.238281 C 331.226563 114.238281 327.359375 110.371094 327.359375 105.601563 C 327.359375 100.828125 331.226563 96.960938 336 96.960938 C 340.773438 96.960938 344.640625 100.828125 344.640625 105.601563 "/>
<path style=" stroke:none;fill-rule:nonzero;fill:rgb(22%,40%,80%);fill-opacity:0.84;" d="M 344.640625 169.601563 C 344.640625 174.371094 340.773438 178.238281 336 178.238281 C 331.226563 178.238281 327.359375 174.371094 327.359375 169.601563 C 327.359375 164.828125 331.226563 160.960938 336 160.960938 C 340.773438 160.960938 344.640625 164.828125 344.640625 169.601563 "/>
<path style=" stroke:none;fill-rule:nonzero;fill:rgb(22%,40%,80%);fill-opacity:0.84;" d="M 344.640625 233.601563 C 344.640625 238.371094 340.773438 242.238281 336 242.238281 C 331.226563 242.238281 327.359375 238.371094 327.359375 233.601563 C 327.359375 228.828125 331.226563 224.960938 336 224.960938 C 340.773438 224.960938 344.640625 228.828125 344.640625 233.601563 "/>
<path style=" stroke:none;fill-rule:nonzero;fill:rgb(22%,40%,80%);fill-opacity:0.84;" d="M 440.640625 278.398438 C 440.640625 283.171875 436.773438 287.039063 432 287.039063 C 427.226563 287.039063 423.359375 283.171875 423.359375 278.398438 C 423.359375 273.628906 427.226563 269.761719 432 269.761719 C 436.773438 269.761719 440.640625 273.628906 440.640625 278.398438 "/>
<path style=" stroke:none;fill-rule:nonzero;fill:rgb(22%,40%,80%);fill-opacity:0.84;" d="M 440.640625 214.398438 C 440.640625 219.171875 436.773438 223.039063 432 223.039063 C 427.226563 223.039063 423.359375 219.171875 423.359375 214.398438 C 423.359375 209.628906 427.226563 205.761719 432 205.761719 C 436.773438 205.761719 440.640625 209.628906 440.640625 214.398438 "/>
<path style=" stroke:none;fill-rule:nonzero;fill:rgb(22%,40%,80%);fill-opacity:0.84;" d="M 440.640625 150.398438 C 440.640625 155.171875 436.773438 159.039063 432 159.039063 C 427.226563 159.039063 423.359375 155.171875 423.359375 150.398438 C 423.359375 145.628906 427.226563 141.761719 432 141.761719 C 436.773438 141.761719 440.640625 145.628906 440.640625 150.398438 "/>
<path style=" stroke:none;fill-rule:nonzero;fill:rgb(22%,40%,80%);fill-opacity:0.84;" d="M 440.640625 86.398438 C 440.640625 91.171875 436.773438 95.039063 432 95.039063 C 427.226563 95.039063 423.359375 91.171875 423.359375 86.398438 C 423.359375 81.628906 427.226563 77.761719 432 77.761719 C 436.773438 77.761719 440.640625 81.628906 440.640625 86.398438 "/>
<path style=" stroke:none;fill-rule:nonzero;fill:rgb(22%,40%,80%);fill-opacity:0.84;" d="M 408.640625 41.601563 C 408.640625 46.371094 404.773438 50.238281 400 50.238281 C 395.226563 50.238281 391.359375 46.371094 391.359375 41.601563 C 391.359375 36.828125 395.226563 32.960938 400 32.960938 C 404.773438 32.960938 408.640625 36.828125 408.640625 41.601563 "/>
<path style=" stroke:none;fill-rule:nonzero;fill:rgb(22%,40%,80%);fill-opacity:0.84;" d="M 408.640625 105.601563 C 408.640625 110.371094 404.773438 114.238281 400 114.238281 C 395.226563 114.238281 391.359375 110.371094 391.359375 105.601563 C 391.359375 100.828125 395.226563 96.960938 400 96.960938 C 404.773438 96.960938 408.640625 100.828125 408.640625 105.601563 "/>
<path style=" stroke:none;fill-rule:nonzero;fill:rgb(22%,40%,80%);fill-opacity:0.84;" d="M 408.640625 169.601563 C 408.640625 174.371094 404.773438 178.238281 400 178.238281 C 395.226563 178.238281 391.359375 174.371094 391.359375 169.601563 C 391.359375 164.828125 395.226563 160.960938 400 160.960938 C 404.773438 160.960938 408.640625 164.828125 408.640625 169.601563 "/>
<path style=" stroke:none;fill-rule:nonzero;fill:rgb(22%,40%,80%);fill-opacity:0.84;" d="M 408.640625 233.601563 C 408.640625 238.371094 404.773438 242.238281 400 242.238281 C 395.226563 242.238281 391.359375 238.371094 391.359375 233.601563 C 391.359375 228.828125 395.226563 224.960938 400 224.960938 C 404.773438 224.960938 408.640625 228.828125 408.640625 233.601563 "/>
<path style=" stroke:none;fill-rule:nonzero;fill:rgb(22%,40%,80%);fill-opacity:0.84;" d="M 504.640625 278.398438 C 504.640625 283.171875 500.773438 287.039063 496 287.039063 C 491.226563 287.039063 487.359375 283.171875 487.359375 278.398438 C 487.359375 273.628906 491.226563 269.761719 496 269.761719 C 500.773438 269.761719 504.640625 273.628906 504.640625 278.398438 "/>
<path style=" stroke:none;fill-rule:nonzero;fill:rgb(22%,40%,80%);fill-opacity:0.84;" d="M 504.640625 214.398438 C 504.640625 219.171875 500.773438 223.039063 496 223.039063 C 491.226563 223.039063 487.359375 219.171875 487.359375 214.398438 C 487.359375 209.628906 491.226563 205.761719 496 205.761719 C 500.773438 205.761719 504.640625 209.628906 504.640625 214.398438 "/>
<path style=" stroke:none;fill-rule:nonzero;fill:rgb(22%,40%,80%);fill-opacity:0.84;" d="M 504.640625 150.398438 C 504.640625 155.171875 500.773438 159.039063 496 159.039063 C 491.226563 159.039063 487.359375 155.171875 487.359375 150.398438 C 487.359375 145.628906 491.226563 141.761719 496 141.761719 C 500.773438 141.761719 504.640625 145.628906 504.640625 150.398438 "/>
<path style=" stroke:none;fill-rule:nonzero;fill:rgb(22%,40%,80%);fill-opacity:0.84;" d="M 504.640625 86.398438 C 504.640625 91.171875 500.773438 95.039063 496 95.039063 C 491.226563 95.039063 487.359375 91.171875 487.359375 86.398438 C 487.359375 81.628906 491.226563 77.761719 496 77.761719 C 500.773438 77.761719 504.640625 81.628906 504.640625 86.398438 "/>
<path style=" stroke:none;fill-rule:nonzero;fill:rgb(22%,40%,80%);fill-opacity:0.84;" d="M 472.640625 41.601563 C 472.640625 46.371094 468.773438 50.238281 464 50.238281 C 459.226563 50.238281 455.359375 46.371094 455.359375 41.601563 C 455.359375 36.828125 459.226563 32.960938 464 32.960938 C 468.773438 32.960938 472.640625 36.828125 472.640625 41.601563 "/>
<path style=" stroke:none;fill-rule:nonzero;fill:rgb(22%,40%,80%);fill-opacity:0.84;" d="M 472.640625 105.601563 C 472.640625 110.371094 468.773438 114.238281 464 114.238281 C 459.226563 114.238281 455.359375 110.371094 455.359375 105.601563 C 455.359375 100.828125 459.226563 96.960938 464 96.960938 C 468.773438 96.960938 472.640625 100.828125 472.640625 105.601563 "/>
<path style=" stroke:none;fill-rule:nonzero;fill:rgb(22%,40%,80%);fill-opacity:0.84;" d="M 472.640625 169.601563 C 472.640625 174.371094 468.773438 178.238281 464 178.238281 C 459.226563 178.238281 455.359375 174.371094 455.359375 169.601563 C 455.359375 164.828125 459.226563 160.960938 464 160.960938 C 468.773438 160.960938 472.640625 164.828125 472.640625 169.601563 "/>
<path style=" stroke:none;fill-rule:nonzero;fill:rgb(22%,40%,80%);fill-opacity:0.84;" d="M 472.640625 233.601563 C 472.640625 238.371094 468.773438 242.238281 464 242.238281 C 459.226563 242.238281 455.359375 238.371094 455.359375 233.601563 C 455.359375 228.828125 459.226563 224.960938 464 224.960938 C 468.773438 224.960938 472.640625 228.828125 472.640625 233.601563 "/>
<path style=" stroke:none;fill-rule:nonzero;fill:rgb(85%,37%,16%);fill-opacity:0.43;" d="M 265.601563 150.398438 L 265.601563 102.398438 C 288.894531 102.398438 308.824219 119.125 312.871094 142.066406 C 316.914063 165.003906 303.90625 187.539063 282.015625 195.503906 L 277.640625 183.476563 C 293.691406 177.632813 303.230469 161.109375 300.265625 144.289063 C 297.300781 127.464844 282.683594 115.199219 265.601563 115.199219 Z "/>
<path style=" stroke:none;fill-rule:nonzero;fill:rgb(94%,26%,26%);fill-opacity:0.65;" d="M 265.601563 150.398438 L 265.601563 140.160156 C 271.253906 140.160156 275.839844 144.746094 275.839844 150.398438 C 275.839844 156.054688 271.253906 160.640625 265.601563 160.640625 C 259.945313 160.640625 255.359375 156.054688 255.359375 150.398438 C 255.359375 144.746094 259.945313 140.160156 265.601563 140.160156 Z "/>
<path style="fill-rule:nonzero;fill:rgb(50%,50%,50%);fill-opacity:0.3;stroke-width:0.075;stroke-linecap:butt;stroke-linejoin:miter;stroke:rgb(0%,0%,0%);stroke-opacity:0.7;stroke-miterlimit:10;" d="M 18.8125 0.25 L 19.4375 0.25 C 19.610107 0.25 19.75 0.389893 19.75 0.5625 L 19.75 1.1875 C 19.75 1.360107 19.610107 1.5 19.4375 1.5 L 18.8125 1.5 C 18.639893 1.5 18.5 1.360107 18.5 1.1875 L 18.5 0.5625 C 18.5 0.389893 18.639893 0.25 18.8125 0.25 Z " transform="matrix(32,0,0,32,0,0)"/>
<path style="fill:none;stroke-width:0.225;stroke-linecap:butt;stroke-linejoin:miter;stroke:rgb(0%,0%,0%);stroke-opacity:0.7;stroke-miterlimit:10;" d="M 18.912476 0.525024 L 18.912476 1.224976 Z " transform="matrix(32,0,0,32,0,0)"/>
<path style="fill:none;stroke-width:0.225;stroke-linecap:butt;stroke-linejoin:miter;stroke:rgb(0%,0%,0%);stroke-opacity:0.7;stroke-miterlimit:10;" d="M 19.337524 0.525024 L 19.337524 1.224976 Z " transform="matrix(32,0,0,32,0,0)"/>
</g>
</svg>
